<?xml version="1.0" standalone="no"?>
<!DOCTYPE svg PUBLIC "-//W3C//DTD SVG 20010904//EN"
 "http://www.w3.org/TR/2001/REC-SVG-20010904/DTD/svg10.dtd">
<svg version="1.0" xmlns="http://www.w3.org/2000/svg"
 width="1127.000000pt" height="1127.000000pt" viewBox="0 0 1127.000000 1127.000000"
 preserveAspectRatio="xMidYMid meet">
<metadata>
Created by potrace 1.14, written by Peter Selinger 2001-2017
</metadata>
<g transform="translate(0.000000,1127.000000) scale(0.100000,-0.100000)"
fill="#000000" stroke="none">
<path d="M5642 10834 c4 -5 -51 -10 -128 -10 -90 -1 -139 -6 -149 -14 -11 -9
-15 -9 -15 -1 0 7 -4 10 -8 7 -5 -3 -35 -8 -68 -11 -32 -4 -64 -11 -69 -15 -6
-5 -17 -5 -25 0 -8 5 -19 5 -25 0 -5 -4 -26 -10 -45 -13 -30 -5 -111 -25 -225
-57 -16 -4 -50 -16 -75 -25 -25 -9 -49 -18 -55 -19 -5 -1 -16 -5 -22 -9 -7 -5
-13 -5 -13 0 0 4 -4 3 -8 -3 -7 -10 -96 -47 -108 -44 -4 1 -10 -2 -13 -7 -3
-5 -42 -27 -86 -48 -44 -22 -84 -43 -90 -48 -5 -4 -39 -26 -75 -50 -36 -23
-66 -45 -68 -49 -2 -5 -10 -8 -17 -8 -7 0 -15 -4 -17 -8 -1 -4 -32 -30 -67
-57 -36 -27 -80 -63 -98 -80 -63 -57 -174 -165 -170 -165 3 0 -14 -19 -37 -42
-23 -24 -63 -70 -89 -103 -26 -33 -51 -65 -56 -71 -25 -30 -121 -173 -121
-180 0 -4 -8 -13 -17 -21 -10 -8 -12 -12 -5 -8 7 3 1 -11 -14 -32 -31 -46 -77
-132 -80 -153 -2 -8 -8 -16 -13 -18 -6 -2 -11 -12 -11 -23 0 -10 -5 -19 -11
-19 -5 0 -8 -4 -5 -8 3 -5 -2 -21 -10 -36 -7 -16 -14 -35 -14 -42 0 -8 -5 -14
-10 -14 -6 0 -9 -3 -8 -7 2 -7 -14 -64 -29 -103 -8 -21 -7 -16 -38 -135 -34
-133 -43 -181 -61 -340 -4 -40 -16 -416 -15 -482 1 -29 2 -61 2 -70 2 -85 0
-815 -2 -888 -1 -38 0 -74 1 -80 1 -5 2 -14 0 -20 -1 -5 -1 -125 0 -265 0
-140 1 -259 1 -265 -2 -90 -2 -222 0 -230 1 -5 0 -14 -1 -20 -3 -13 -3 -1107
0 -1120 1 -5 1 -14 0 -20 -1 -5 -1 -104 0 -220 1 -253 1 -152 1 -660 0 -236 0
-437 0 -445 0 -16 0 -693 0 -720 -2 -134 -2 -227 0 -235 1 -5 0 -14 -1 -20 -1
-5 -2 -292 -2 -638 0 -423 -4 -629 -11 -634 -5 -3 -20 -7 -31 -9 -12 -1 -33
-5 -48 -8 -44 -10 -71 -14 -108 -20 -19 -3 -80 -15 -135 -26 -55 -11 -113 -23
-128 -26 -15 -3 -51 -12 -80 -20 -49 -14 -90 -24 -112 -28 -5 -1 -17 -6 -25
-11 -8 -5 -23 -11 -32 -12 -9 -1 -41 -14 -72 -28 -30 -14 -60 -25 -65 -25 -6
0 -11 -4 -11 -10 0 -5 -5 -10 -12 -10 -19 0 -116 -71 -133 -97 -23 -35 -26
-83 -9 -123 16 -36 80 -92 110 -96 10 -2 20 -7 23 -12 5 -8 37 -22 61 -27 3
-1 22 -9 44 -18 21 -9 44 -17 50 -17 7 0 17 -5 24 -12 7 -7 12 -9 12 -5 0 4
17 0 37 -8 20 -9 43 -13 50 -11 7 3 13 1 13 -4 0 -6 8 -10 17 -10 14 0 34 -5
103 -28 8 -2 24 -6 35 -7 26 -3 82 -14 120 -23 17 -5 37 -8 45 -7 8 0 17 -2
20 -6 3 -4 21 -8 40 -10 19 -2 39 -5 45 -8 5 -3 27 -7 49 -9 22 -2 48 -8 57
-13 12 -6 20 -5 24 1 4 7 11 8 18 2 7 -6 37 -13 68 -16 31 -4 67 -9 79 -11 12
-2 51 -7 88 -10 37 -4 83 -9 102 -12 19 -2 52 -5 73 -6 20 -1 37 -4 37 -7 0
-3 12 -5 28 -6 15 0 63 -5 107 -9 44 -4 97 -8 117 -9 21 -1 38 -3 38 -6 0 -3
17 -6 38 -7 34 -1 103 -7 202 -17 21 -2 43 -7 49 -10 6 -4 11 -2 11 4 0 6 5 8
12 4 6 -4 28 -9 47 -10 39 -3 143 -12 231 -20 30 -2 82 -6 115 -7 33 -2 65 -6
72 -10 6 -4 14 -3 18 3 4 6 10 8 14 6 8 -5 240 -18 373 -20 43 -1 80 -5 83 -8
3 -3 22 -2 42 3 22 4 44 4 55 -2 12 -7 18 -6 18 1 0 6 5 8 12 4 14 -9 147 -8
155 0 4 3 12 1 20 -5 10 -9 13 -8 13 0 0 7 5 9 12 5 14 -9 103 -8 117 0 5 4
12 3 15 -2 5 -9 88 -7 112 2 8 3 14 2 14 -2 0 -8 105 -6 127 2 7 3 15 1 18 -5
4 -5 11 -6 18 -2 11 7 55 10 207 14 47 1 93 6 104 11 13 7 16 7 11 -1 -4 -8 1
-10 17 -6 19 4 172 14 286 18 17 1 32 5 32 10 0 5 6 4 13 -2 8 -6 16 -9 19 -6
2 3 32 7 66 10 34 3 74 7 89 9 16 3 64 8 108 12 44 3 98 8 120 10 22 2 63 6
90 8 28 3 73 7 100 10 112 13 172 18 207 20 21 0 38 3 38 6 0 3 10 5 23 6 12
0 47 3 77 7 108 14 155 19 183 21 15 0 27 5 27 9 0 5 4 6 9 3 5 -3 33 -1 62 4
30 5 72 12 94 15 40 5 57 8 125 22 46 9 50 10 53 12 2 3 55 12 75 13 6 1 12 6
12 11 0 5 6 4 13 -2 8 -6 17 -8 21 -4 4 4 19 9 34 11 14 2 32 8 39 14 8 6 16
8 19 5 3 -3 23 1 45 8 22 8 40 14 42 13 1 0 29 7 62 17 33 10 66 18 73 18 6 0
12 4 12 9 0 4 3 7 8 6 27 -7 210 77 266 123 41 35 67 83 61 115 -2 10 -4 24
-4 30 -1 11 -73 88 -102 109 -40 28 -209 100 -209 89 0 -4 -6 -2 -12 4 -12 9
-171 55 -228 66 -14 2 -44 9 -67 14 -24 5 -43 8 -43 5 0 -3 -7 0 -15 7 -8 7
-15 10 -15 8 0 -3 -19 -1 -42 4 -24 4 -56 11 -73 13 -16 3 -41 8 -55 11 -14 3
-41 8 -60 10 -19 3 -37 9 -40 14 -3 5 -11 5 -20 0 -9 -5 -19 -5 -27 2 -10 8
-13 535 -13 2612 0 2901 -4 4404 -13 4456 -3 19 -8 49 -11 65 -4 17 -11 62
-17 100 -6 39 -14 75 -17 80 -4 6 -7 15 -7 20 -5 86 -114 386 -191 527 -24 43
-44 83 -44 88 0 6 -4 10 -10 10 -5 0 -10 6 -10 14 0 8 -3 16 -8 18 -4 2 -27
36 -51 76 -24 39 -47 72 -52 72 -5 0 -9 7 -9 15 0 8 -5 15 -11 15 -5 0 -8 4
-5 9 3 5 -1 11 -9 15 -8 3 -15 10 -15 16 0 6 -6 17 -12 24 -7 7 -29 32 -48 56
-92 114 -182 204 -290 291 -36 28 -67 54 -70 58 -3 3 -22 17 -42 31 -21 14
-38 28 -38 33 0 4 -4 7 -9 7 -11 0 -173 101 -182 113 -3 5 -10 9 -15 9 -5 0
-56 23 -114 51 -58 28 -109 52 -115 53 -5 1 -56 20 -112 42 -56 22 -104 38
-107 35 -3 -3 -11 -1 -18 4 -7 6 -26 13 -43 16 -16 3 -48 10 -70 16 -22 5 -50
12 -61 14 -33 8 -97 19 -120 21 -11 2 -24 5 -30 8 -5 3 -27 6 -49 7 -22 1 -56
3 -75 6 -19 3 -60 6 -91 9 -31 2 -62 7 -69 11 -7 5 -11 4 -8 -1z m-46 -309
c45 -1 71 2 67 8 -4 6 -1 7 8 2 13 -9 33 -11 114 -16 22 -1 48 -6 58 -11 11
-6 17 -5 17 2 0 6 4 9 9 5 9 -5 82 -18 109 -18 6 0 12 -4 12 -9 0 -5 4 -6 10
-3 5 3 35 -1 67 -10 32 -9 69 -18 82 -21 48 -10 218 -76 301 -117 46 -23 88
-41 92 -40 4 2 8 -1 8 -5 0 -5 23 -19 50 -32 28 -13 50 -27 50 -32 0 -4 7 -8
15 -8 8 0 15 -4 15 -10 0 -5 7 -10 15 -10 8 0 24 -9 35 -20 11 -11 22 -20 25
-20 6 0 12 -4 66 -50 20 -16 39 -30 42 -30 4 0 19 -12 35 -27 16 -16 58 -55
93 -88 72 -68 139 -143 139 -156 0 -5 7 -9 16 -9 8 0 12 -4 9 -10 -3 -5 -2
-10 2 -10 5 0 16 -12 25 -27 9 -16 26 -39 38 -53 11 -13 31 -40 42 -60 12 -19
27 -38 32 -42 7 -5 7 -8 1 -8 -6 0 -6 -3 0 -8 20 -13 133 -220 138 -252 1 -8
5 -17 8 -20 5 -5 56 -134 64 -162 2 -5 4 -11 5 -15 1 -5 2 -12 1 -17 -1 -4 3
-13 8 -20 18 -21 70 -244 75 -323 1 -18 5 -35 9 -39 3 -4 2 -15 -4 -25 -5 -11
-6 -19 -2 -19 11 0 10 -162 -1 -179 -6 -9 -5 -12 1 -8 6 4 9 -243 9 -703 -1
-398 3 -710 8 -710 5 0 5 -6 0 -12 -6 -8 -9 -1065 -8 -2513 1 -1511 -2 -2505
-8 -2512 -5 -7 -5 -14 1 -17 10 -6 8 -37 -4 -56 -3 -6 -2 -10 3 -10 4 0 7 -17
4 -37 -5 -53 -5 -55 1 -85 3 -16 2 -28 -3 -28 -5 0 -7 -6 -4 -14 3 -8 1 -17
-5 -21 -6 -3 -11 -1 -11 5 0 6 -4 9 -9 6 -17 -11 -179 61 -290 126 -34 21 -66
38 -70 38 -4 0 -13 9 -21 20 -8 11 -18 20 -23 20 -8 0 -137 128 -187 186 -14
16 -41 52 -60 79 -19 28 -38 52 -42 53 -5 2 -8 8 -8 13 0 5 -12 28 -27 52 -42
64 -142 256 -148 282 -1 5 -8 24 -14 40 -27 64 -61 159 -66 179 -2 11 -12 41
-21 66 -9 25 -18 54 -20 64 -2 11 -11 41 -19 66 -9 26 -15 52 -14 56 1 5 0 16
-4 24 -7 21 -17 60 -23 95 -3 17 -10 48 -16 70 -7 22 -11 43 -10 47 1 4 -5 37
-13 74 -15 64 -28 136 -28 162 0 6 -3 12 -6 12 -3 0 -6 19 -6 43 0 23 -2 46
-5 52 -5 13 -11 67 -13 127 -1 27 -4 48 -7 48 -3 0 -5 19 -4 43 0 23 -2 46 -5
52 -3 5 -6 21 -7 35 -2 27 -13 176 -20 275 -13 169 -21 885 -11 892 4 3 4 10
-1 16 -4 7 -7 23 -5 37 1 14 5 115 7 225 3 110 7 238 10 285 3 47 8 141 11
210 3 69 8 150 11 180 9 91 17 202 18 247 0 24 3 43 6 43 3 0 5 17 6 38 0 20
4 64 8 97 4 33 9 83 11 110 4 54 9 97 21 196 4 35 7 72 8 82 0 9 4 17 7 17 4
0 4 13 -1 29 -4 16 -6 32 -2 35 7 8 13 58 15 134 1 34 4 62 7 62 3 0 6 15 6
33 1 17 4 59 7 92 11 118 19 221 21 260 1 22 5 45 9 52 4 6 3 14 -3 18 -6 4
-8 11 -4 16 6 10 14 105 18 230 2 42 6 81 10 87 4 7 3 12 -3 12 -7 0 -7 8 -1
24 5 13 6 27 3 30 -3 3 -7 38 -8 78 -3 103 -23 232 -47 308 -35 111 -128 277
-204 365 -52 61 -113 125 -118 125 -6 0 -37 24 -61 48 -8 6 -17 12 -20 12 -4
0 -18 9 -32 20 -14 11 -29 17 -34 14 -5 -3 -9 -1 -9 4 0 13 -153 81 -189 84
-17 1 -31 5 -31 8 0 4 -6 7 -12 7 -32 2 -175 15 -195 18 -13 2 -23 -1 -23 -6
0 -6 -7 -6 -19 0 -10 6 -20 9 -22 7 -2 -2 -31 -7 -64 -10 -69 -8 -84 -10 -106
-20 -9 -4 -20 -6 -25 -4 -5 1 -20 -4 -34 -12 -14 -7 -27 -13 -30 -12 -11 4
-100 -32 -100 -41 0 -4 -4 -6 -9 -2 -5 3 -13 0 -17 -6 -3 -6 -21 -17 -38 -25
-39 -18 -62 -33 -98 -64 -61 -53 -108 -101 -108 -112 0 -6 -3 -8 -7 -5 -3 4
-14 -7 -24 -23 -11 -17 -23 -30 -29 -30 -5 0 -10 -4 -10 -10 0 -5 -16 -32 -36
-60 -20 -27 -32 -50 -27 -50 4 0 3 -4 -4 -8 -16 -10 -83 -139 -76 -146 4 -3 0
-6 -7 -6 -7 0 -10 -3 -7 -6 3 -4 2 -14 -3 -24 -10 -19 -47 -157 -48 -180 -2
-41 -13 -199 -17 -227 -2 -18 1 -33 6 -33 6 0 7 -5 3 -11 -8 -14 -8 -70 1
-234 4 -71 8 -158 10 -191 1 -34 6 -67 10 -74 6 -9 4 -11 -4 -5 -10 6 -11 3
-3 -12 6 -10 9 -33 8 -51 -1 -17 1 -32 4 -32 3 0 6 -28 7 -62 1 -35 2 -63 3
-63 1 0 4 -13 5 -30 7 -63 16 -151 20 -180 2 -16 6 -61 9 -100 13 -165 29
-320 42 -400 7 -44 16 -145 17 -182 1 -18 4 -33 7 -33 3 0 6 -24 6 -53 1 -28
4 -74 7 -102 6 -55 18 -206 23 -300 2 -33 5 -91 8 -130 3 -38 8 -154 11 -257
3 -103 8 -197 10 -208 2 -11 -1 -22 -6 -26 -6 -3 -5 -12 3 -22 10 -12 10 -16
1 -19 -8 -3 -10 -11 -5 -21 9 -19 8 -360 -3 -662 -4 -113 -8 -226 -9 -252 0
-27 -3 -48 -6 -48 -3 0 -6 -33 -6 -73 -2 -67 -11 -212 -14 -212 -1 0 -3 -22
-5 -50 -3 -27 -7 -63 -9 -80 -3 -16 -8 -56 -11 -88 -2 -32 -7 -62 -9 -65 -2
-4 -7 -35 -11 -69 -3 -34 -8 -72 -11 -85 -17 -78 -15 -67 -29 -163 -4 -27 -10
-54 -13 -60 -4 -5 -7 -21 -8 -35 -1 -14 -2 -25 -3 -25 -3 0 -6 -14 -15 -60 -3
-16 -10 -45 -16 -64 -5 -19 -8 -37 -5 -39 3 -3 0 -11 -7 -19 -6 -7 -8 -16 -5
-20 3 -3 -1 -19 -9 -35 -8 -16 -12 -33 -9 -38 3 -6 1 -10 -6 -10 -7 0 -10 -3
-6 -6 3 -3 -5 -36 -19 -73 -14 -36 -26 -70 -28 -76 -12 -48 -40 -115 -47 -115
-6 0 -8 -4 -4 -9 6 -11 -74 -192 -90 -203 -5 -4 -6 -8 -2 -8 5 0 -1 -13 -12
-29 -12 -16 -21 -34 -21 -39 0 -6 -6 -17 -14 -24 -7 -8 -24 -34 -37 -57 -13
-24 -30 -54 -37 -67 -7 -13 -17 -24 -23 -24 -5 0 -9 -6 -9 -14 0 -13 -15 -32
-80 -104 -17 -18 -30 -35 -30 -38 0 -4 -19 -23 -42 -43 -23 -20 -59 -53 -80
-73 -21 -21 -38 -34 -38 -30 0 4 -7 -1 -14 -11 -8 -10 -16 -17 -18 -16 -3 3
-89 -51 -98 -62 -6 -6 -37 -19 -46 -18 -4 0 -10 -4 -14 -10 -8 -14 -171 -72
-182 -65 -4 3 -8 1 -8 -5 0 -5 -8 -8 -17 -7 -10 2 -17 7 -17 12 1 5 -2 19 -7
31 -5 13 -5 23 -1 23 9 0 9 47 0 55 -3 3 -2 22 1 43 4 20 4 51 1 67 -3 17 -3
42 1 56 4 15 3 32 -1 39 -4 7 -5 24 -1 39 6 24 7 39 1 59 -1 4 -1 50 0 102 1
90 1 103 -1 133 0 6 0 21 1 32 0 11 0 27 -1 35 -1 8 0 29 0 45 1 17 0 41 -2
55 -2 14 1 33 5 43 5 9 6 23 1 29 -9 16 -9 50 0 65 4 6 3 14 -2 18 -7 3 -7 15
-1 29 5 13 6 26 4 29 -9 8 -10 70 -3 98 4 15 3 32 -2 40 -4 7 -4 19 2 25 6 8
7 14 0 18 -6 4 -6 18 -1 35 4 15 4 34 0 42 -5 7 -4 21 1 30 6 12 5 20 -1 24
-7 4 -7 12 -2 18 4 7 7 23 5 37 -2 14 -3 57 -3 95 1 67 1 79 -1 108 0 6 0 21
1 32 0 11 0 27 -1 35 -1 8 -1 29 0 45 1 17 1 38 1 48 0 9 -1 32 -1 50 0 17 -1
46 -2 62 -1 17 1 42 4 56 4 15 3 32 -1 40 -5 7 -4 21 1 31 6 12 6 18 0 18 -6
0 -6 11 -2 28 5 15 5 36 1 47 -4 11 -3 25 2 32 5 6 5 14 1 16 -9 6 -8 105 0
114 3 2 1 18 -3 34 -5 16 -5 31 0 34 4 3 4 21 0 40 -5 20 -4 33 1 29 5 -3 5 6
-1 20 -6 17 -6 27 1 32 6 3 6 11 1 17 -8 12 -8 98 1 121 3 7 1 19 -3 26 -5 8
-4 22 1 32 6 11 6 18 0 18 -5 0 -6 14 -1 34 4 18 3 41 -2 50 -6 11 -5 16 3 16
8 0 8 4 1 13 -7 8 -7 18 -2 27 5 9 5 19 -1 27 -7 8 -7 18 1 32 6 12 7 28 3 39
-10 21 -10 43 0 59 4 6 3 14 -2 18 -7 3 -7 15 -1 29 5 13 7 26 4 29 -5 5 -6
67 -2 135 2 23 0 42 -3 42 -4 0 -3 16 1 35 4 19 4 35 0 35 -4 0 -4 19 0 42 5
24 6 47 3 52 -10 15 -10 50 -1 69 5 10 5 17 -1 17 -7 0 -7 8 -2 23 5 12 5 31
1 42 -4 11 -4 28 1 37 6 10 5 19 -1 23 -7 4 -7 12 -2 18 4 7 7 23 5 37 -6 40
-4 180 2 190 3 5 1 11 -4 14 -6 4 -6 18 -1 36 11 38 11 42 -1 57 -7 7 -6 14 1
18 6 3 8 11 5 16 -8 12 -12 89 -5 89 3 0 5 16 5 35 0 19 -3 35 -7 35 -4 0 -3
12 1 28 5 15 6 36 4 47 -4 22 -6 77 -3 85 6 16 5 78 -2 97 -4 12 -4 24 1 27 4
3 6 27 4 53 -5 55 -5 54 0 111 2 23 -1 42 -6 42 -4 0 -5 5 -1 11 11 18 10 119
-1 119 -7 0 -7 3 0 8 11 8 13 37 3 47 -4 4 -4 14 -1 22 9 23 10 135 1 161 -4
12 -4 22 0 22 6 0 8 67 2 80 -1 3 -1 10 0 15 7 28 5 125 -3 125 -4 0 -5 6 0
13 12 18 12 67 0 67 -7 0 -7 4 1 12 7 7 8 17 1 30 -5 10 -6 18 -1 18 7 0 9 63
2 80 -1 3 -1 10 0 15 7 36 4 125 -4 125 -7 0 -8 3 -1 8 12 8 14 142 2 142 -5
0 -5 6 -1 12 11 18 13 50 3 74 -4 12 -5 25 -2 28 9 9 10 87 1 92 -4 3 -4 14 1
26 4 12 5 37 1 55 -5 18 -5 33 -1 33 3 0 6 25 6 55 0 30 -4 55 -8 55 -5 0 -5
5 -1 12 9 14 8 174 -1 188 -3 6 -2 10 2 10 8 0 9 65 3 95 -1 6 -1 12 0 15 6
15 4 92 -2 96 -4 3 -3 15 1 27 5 12 5 34 0 49 -4 15 -4 30 -1 32 9 5 7 110 -2
125 -4 6 -3 11 2 11 5 0 8 19 8 43 -1 23 2 62 6 87 5 25 11 65 14 90 3 24 9
49 14 56 6 6 7 13 4 16 -4 5 1 29 30 133 19 68 50 162 56 170 5 6 11 22 14 35
2 14 18 53 35 88 17 34 31 66 31 71 0 5 7 14 15 21 8 7 13 16 10 20 -2 4 4 18
15 30 18 21 22 29 19 46 0 4 3 10 8 13 13 9 93 130 93 142 0 5 4 9 10 9 5 0
16 13 24 28 8 16 28 43 44 60 17 18 28 32 26 32 -17 0 177 192 263 260 10 8
39 32 65 52 25 21 48 34 52 31 3 -4 6 -2 6 4 0 10 29 31 95 68 11 7 36 21 55
32 19 11 50 29 69 41 19 12 38 19 43 16 4 -3 8 0 8 5 0 6 6 11 13 11 6 0 26 7
42 16 17 9 39 18 49 20 11 2 23 9 26 15 4 6 9 10 11 8 2 -1 15 1 29 5 14 5 31
10 39 11 8 2 17 7 20 12 3 4 11 9 18 10 6 2 45 12 85 23 40 12 84 23 98 26 14
3 33 7 42 10 23 7 66 15 103 20 17 2 46 5 65 8 19 3 67 6 107 7 42 2 69 7 66
13 -4 5 -1 6 7 1 8 -5 46 -9 86 -10z m157 -1624 c50 -12 179 -76 185 -92 2 -5
8 -9 14 -9 5 0 16 -6 23 -12 8 -7 29 -24 46 -38 92 -72 192 -208 225 -307 10
-32 21 -60 24 -63 3 -3 6 -16 8 -30 1 -14 6 -47 9 -75 14 -100 7 -448 -12
-605 -17 -145 -25 -209 -30 -233 -2 -15 -9 -53 -15 -85 -15 -85 -17 -94 -29
-124 -6 -16 -9 -28 -6 -28 13 0 -100 -285 -145 -365 -12 -22 -32 -58 -43 -80
-12 -22 -24 -42 -27 -45 -3 -3 -19 -25 -35 -50 -40 -60 -39 -59 -80 -105 -19
-22 -35 -43 -35 -47 0 -5 -6 -8 -13 -8 -8 0 -24 -11 -37 -25 -12 -13 -26 -22
-31 -20 -4 3 -14 -2 -23 -10 -8 -9 -18 -15 -21 -14 -3 1 -16 -2 -28 -6 -162
-52 -284 1 -420 181 -25 34 -43 64 -40 68 4 3 1 6 -5 6 -6 0 -17 11 -24 25
-51 97 -108 213 -108 221 -1 5 -9 27 -20 49 -11 22 -19 47 -20 56 0 8 -5 20
-12 27 -7 7 -9 12 -5 12 4 0 2 10 -5 23 -6 12 -12 29 -13 37 -2 15 -32 132
-42 160 -3 8 -7 29 -9 45 -2 17 -5 39 -8 50 -3 18 -19 128 -20 147 -1 3 -4 9
-8 13 -3 4 -2 20 2 36 5 16 5 31 0 34 -5 3 -9 22 -9 43 0 20 -3 57 -7 82 -3
25 -8 138 -11 252 -6 281 19 425 100 570 49 88 165 205 262 265 24 15 107 56
118 59 4 1 8 2 10 4 5 4 44 11 92 16 28 3 51 7 53 9 7 7 183 -4 225 -14z m-69
-4740 c23 -10 44 -18 49 -19 13 -3 97 -91 97 -102 0 -5 4 -10 8 -10 26 0 119
-224 137 -330 3 -14 7 -36 9 -50 3 -14 5 -25 7 -25 1 0 2 -11 3 -25 1 -14 5
-31 9 -37 5 -7 5 -17 2 -23 -3 -5 -3 -10 2 -10 4 0 9 -19 9 -43 1 -23 5 -71 8
-107 4 -36 9 -117 12 -180 2 -63 6 -126 7 -140 1 -14 -1 -33 -6 -42 -4 -10 -4
-18 0 -18 5 0 8 -24 8 -52 -1 -117 28 -344 56 -452 6 -22 12 -49 14 -60 1 -12
5 -28 8 -36 3 -8 8 -26 10 -40 6 -27 28 -117 47 -190 6 -25 13 -52 15 -60 2
-8 8 -33 13 -55 18 -80 13 -89 -68 -124 -40 -17 -130 -29 -136 -19 -3 5 -12 4
-20 -3 -8 -6 -56 -13 -106 -16 -145 -7 -565 -6 -648 2 -41 4 -91 8 -110 10
-19 2 -35 4 -35 5 0 1 -13 4 -30 6 -32 5 -75 19 -113 37 -15 7 -20 16 -17 28
3 9 2 20 -3 23 -5 3 -6 23 -2 46 4 22 5 40 2 40 -2 0 1 6 7 14 7 8 13 28 13
45 1 17 4 31 9 31 4 0 6 8 5 17 -2 10 3 39 10 66 7 26 12 48 12 50 0 1 3 13 6
27 3 14 8 37 10 52 3 15 7 31 9 35 3 5 8 32 11 62 4 29 8 57 11 61 2 4 7 29
10 56 2 27 7 58 9 69 2 12 7 57 11 100 3 44 9 107 11 140 3 33 7 132 9 220 5
193 14 312 35 430 6 33 13 74 15 90 5 41 11 65 24 98 6 15 8 27 6 27 -3 0 7
30 20 67 31 82 88 186 117 213 12 11 18 20 13 20 -4 0 16 18 46 39 30 21 57
37 62 34 4 -2 7 0 7 6 0 30 196 32 264 2z m-2083 -2622 c19 -6 41 -13 49 -16
33 -13 155 -43 192 -48 15 -2 35 -6 45 -9 25 -7 70 -15 123 -22 68 -8 89 -12
101 -20 8 -5 9 -3 4 5 -6 10 -3 11 15 1 12 -6 28 -9 35 -6 7 2 16 2 19 -1 3
-3 22 -7 43 -9 21 -2 63 -6 93 -10 30 -3 73 -8 95 -9 22 -2 54 -6 70 -9 17 -3
59 -8 95 -10 105 -8 203 -17 235 -22 56 -9 135 -9 135 -1 0 5 6 5 13 0 14 -9
21 -9 220 -17 81 -3 152 -8 157 -11 5 -3 11 -2 14 3 3 5 28 6 56 2 28 -4 53
-3 56 2 3 5 9 6 14 3 6 -4 184 -9 225 -6 6 1 98 3 205 6 265 7 303 9 318 18 6
5 12 5 12 0 0 -4 14 -8 30 -8 17 0 30 2 30 5 0 3 15 6 33 7 58 2 202 12 202
13 0 1 16 3 35 5 86 9 158 16 200 20 25 3 63 7 85 9 22 2 40 5 40 6 0 1 16 3
35 5 19 2 58 6 85 9 28 3 61 8 75 11 14 3 45 8 70 11 25 3 52 7 60 9 8 2 30 7
48 10 85 14 99 16 132 25 19 5 48 11 63 14 16 3 48 13 72 22 25 9 51 14 59 11
17 -7 18 -45 2 -66 -8 -11 -8 -13 1 -8 13 8 12 -53 -3 -87 -10 -25 -41 -56
-48 -49 -3 4 -6 1 -6 -5 0 -7 -6 -12 -14 -12 -8 0 -17 -7 -20 -16 -4 -9 -9
-14 -13 -11 -3 4 -21 -3 -40 -14 -18 -11 -33 -18 -33 -15 0 4 -14 -1 -32 -10
-17 -9 -40 -18 -52 -19 -26 -5 -46 -10 -66 -18 -8 -3 -28 -8 -45 -11 -16 -3
-59 -12 -95 -19 -36 -8 -68 -13 -72 -10 -5 2 -8 -1 -8 -6 0 -6 -10 -9 -22 -8
-12 2 -50 -2 -85 -10 -35 -7 -67 -12 -71 -12 -4 1 -9 1 -12 -1 -3 -1 -32 -4
-65 -7 -33 -2 -66 -9 -72 -15 -9 -7 -13 -7 -13 0 0 6 -12 7 -33 2 -18 -4 -50
-7 -70 -6 -20 1 -37 -1 -37 -4 0 -3 -17 -5 -38 -6 -20 -1 -76 -4 -123 -8 -47
-4 -128 -10 -180 -13 -126 -7 -1162 -12 -1173 -5 -4 2 -54 6 -110 8 -55 3
-128 7 -161 9 -33 3 -100 8 -150 11 -49 4 -96 11 -102 16 -9 7 -13 7 -13 -1 0
-7 -5 -9 -12 -5 -7 4 -28 9 -48 10 -75 4 -205 20 -205 24 0 2 -33 7 -96 14
-60 7 -70 9 -136 24 -24 5 -43 8 -43 5 0 -3 -6 0 -14 6 -8 6 -18 11 -22 10 -5
-2 -29 3 -54 10 -25 7 -49 14 -55 15 -5 1 -19 7 -30 13 -11 6 -22 11 -25 11
-47 -5 -211 107 -216 147 -1 6 -3 13 -4 18 -7 20 -5 73 2 84 5 6 5 14 -1 17
-6 4 -8 13 -4 21 6 18 2 17 44 4z"/>
</g>
</svg>
