<?xml version="1.0" standalone="no"?>
<!DOCTYPE svg PUBLIC "-//W3C//DTD SVG 20010904//EN"
 "http://www.w3.org/TR/2001/REC-SVG-20010904/DTD/svg10.dtd">
<svg version="1.0" xmlns="http://www.w3.org/2000/svg"
 width="1646.000000pt" height="1646.000000pt" viewBox="0 0 1646.000000 1646.000000"
 preserveAspectRatio="xMidYMid meet">
<metadata>
Created by potrace 1.14, written by Peter Selinger 2001-2017
</metadata>
<g transform="translate(0.000000,1646.000000) scale(0.100000,-0.100000)"
fill="#000000" stroke="none">
<path d="M8050 13830 c-14 -3 -42 -5 -62 -5 -21 0 -38 -2 -38 -5 0 -3 -17 -6
-38 -6 -38 -2 -87 -9 -156 -24 -22 -5 -44 -7 -48 -4 -4 3 -8 0 -8 -5 0 -6 -3
-10 -7 -9 -5 1 -26 -3 -48 -7 -56 -13 -54 -12 -60 -15 -6 -3 -6 -3 -55 -14
-19 -5 -39 -12 -45 -16 -5 -5 -12 -8 -15 -8 -7 1 -51 -12 -75 -22 -120 -49
-145 -58 -145 -52 0 4 -4 2 -8 -4 -4 -6 -34 -24 -67 -39 -77 -37 -178 -96
-186 -108 -3 -5 -10 -8 -15 -8 -5 0 -19 -9 -32 -19 -12 -11 -25 -20 -28 -20
-9 0 -143 -106 -216 -171 -66 -59 -198 -189 -198 -195 0 -2 -18 -21 -40 -44
-21 -22 -36 -40 -32 -40 4 0 2 -4 -3 -8 -16 -11 -106 -129 -159 -209 -51 -77
-68 -106 -112 -193 -15 -30 -31 -56 -36 -58 -4 -2 -8 -8 -8 -13 0 -5 -8 -28
-19 -52 -39 -91 -83 -201 -88 -222 -1 -5 -13 -50 -27 -100 -13 -49 -23 -92
-20 -96 2 -4 0 -10 -5 -13 -8 -5 -15 -40 -27 -131 -1 -11 -3 -20 -4 -20 -3 0
-12 -98 -14 -147 0 -27 -5 -48 -10 -48 -5 0 -3 -6 3 -13 6 -8 8 -17 4 -21 -4
-4 -8 -28 -9 -54 -1 -26 -3 -1580 -4 -3454 -1 -2091 -5 -3410 -11 -3413 -12
-8 -46 -15 -91 -19 -20 -2 -41 -6 -45 -9 -5 -3 -31 -8 -59 -12 -27 -3 -67 -10
-89 -16 -22 -6 -53 -13 -70 -15 -16 -2 -66 -13 -110 -23 -44 -11 -83 -17 -86
-15 -4 2 -9 0 -11 -5 -1 -6 -16 -12 -33 -15 -16 -2 -32 -5 -35 -6 -3 -1 -8 -2
-12 -1 -5 0 -8 -4 -8 -10 0 -5 -4 -8 -8 -5 -16 10 -231 -86 -240 -106 -2 -5
-9 -8 -16 -8 -19 0 -84 -65 -96 -95 -17 -45 2 -112 42 -147 33 -29 234 -121
263 -121 8 0 15 -4 15 -9 0 -4 3 -7 8 -6 4 1 27 -4 52 -11 25 -7 52 -15 60
-16 8 -2 15 -4 15 -5 0 -1 7 -3 15 -5 57 -15 117 -29 195 -46 79 -17 107 -23
175 -34 8 -1 26 -5 40 -8 14 -4 41 -9 60 -12 19 -2 46 -7 60 -9 58 -10 207
-29 228 -30 12 0 22 -2 22 -5 0 -4 21 -6 48 -7 52 -1 165 -12 202 -19 14 -3
52 -7 85 -11 33 -3 76 -8 95 -10 19 -2 60 -6 90 -9 30 -2 75 -7 100 -9 25 -3
74 -7 110 -11 36 -3 81 -7 100 -9 19 -2 71 -7 115 -10 44 -4 100 -9 125 -12
25 -2 89 -6 143 -9 54 -2 102 -7 107 -10 6 -4 10 -1 10 5 0 6 5 8 11 5 10 -7
193 -17 341 -19 38 -1 68 -5 68 -9 0 -5 5 -5 11 -2 10 7 86 8 187 3 28 -2 52
1 52 5 0 5 5 5 12 1 6 -4 86 -6 177 -5 166 2 180 2 204 0 6 -1 84 2 172 6 88
4 197 8 242 10 45 2 86 6 92 9 5 4 12 2 16 -4 4 -6 10 -8 15 -5 5 3 35 7 67
10 361 28 364 28 381 39 7 4 12 2 12 -4 0 -6 4 -9 10 -5 9 5 70 13 170 20 25
2 45 4 45 5 0 1 18 3 40 5 22 1 67 6 100 9 33 4 87 9 120 11 33 3 71 7 85 10
22 5 47 8 170 20 19 2 35 4 35 5 0 1 16 3 35 4 19 2 58 7 85 11 28 5 64 9 80
11 17 1 30 3 30 4 0 2 44 9 85 13 19 2 46 7 60 10 14 4 36 9 50 11 26 5 106
21 150 31 14 3 41 8 60 11 19 3 38 11 42 18 6 8 8 8 8 0 0 -8 12 -8 43 1 153
46 184 55 195 55 7 0 12 5 12 11 0 5 4 8 9 5 7 -5 76 19 161 56 14 6 28 11 33
10 4 -1 7 2 7 7 0 5 13 14 29 21 16 6 46 29 66 51 60 66 52 126 -27 201 -31
30 -138 92 -138 80 0 -4 -7 2 -15 12 -8 11 -15 17 -15 13 0 -10 -104 24 -112
37 -4 6 -8 8 -8 5 0 -3 -33 3 -72 13 -95 25 -144 36 -193 44 -22 3 -46 11 -52
16 -7 6 -13 8 -13 6 0 -3 -21 -1 -47 4 -27 5 -65 11 -86 14 -21 3 -44 7 -50 8
-7 1 -16 4 -22 7 -5 3 -26 6 -45 8 -19 2 -36 7 -38 11 -2 5 -10 6 -18 3 -24
-9 -44 15 -34 42 5 14 6 26 2 29 -4 2 -5 205 -2 451 3 246 2 449 -3 452 -4 2
-5 9 -1 14 5 9 9 1409 4 1434 -1 6 -2 12 -1 15 2 7 2 603 0 615 -1 6 -1 14 0
19 2 11 2 708 0 716 -1 3 -1 9 0 13 4 21 1 619 -2 625 -3 4 -2 15 2 24 3 9 4
110 1 223 -3 113 -2 214 1 223 4 9 2 23 -3 30 -7 8 -7 16 0 25 7 8 7 18 2 27
-5 8 -5 21 0 31 5 9 7 19 4 22 -5 5 -8 160 -4 182 1 6 2 15 0 20 -2 13 -2 298
1 311 1 5 0 11 -1 14 -7 19 -7 40 1 40 6 0 6 7 0 18 -5 10 -6 24 -1 32 4 7 5
23 0 34 -4 12 -4 30 0 41 4 11 4 27 -1 36 -5 9 -6 19 -3 21 4 5 7 524 3 553
-1 6 -1 14 0 20 2 7 1 314 -1 471 -1 23 2 46 6 53 4 6 3 11 -1 11 -5 0 -10 33
-11 73 -2 39 -4 86 -7 102 -12 96 -16 124 -25 165 -11 48 -49 208 -54 225 -2
6 -6 24 -10 40 -16 63 -99 271 -125 314 -9 13 -16 30 -17 37 -1 8 -12 25 -23
40 -12 15 -21 30 -21 35 0 7 -118 198 -130 209 -3 3 -21 28 -39 55 -19 28 -38
52 -41 55 -3 3 -13 15 -22 28 -58 85 -237 262 -348 346 -30 22 -58 45 -62 51
-4 5 -8 7 -8 3 0 -5 -8 0 -18 10 -27 25 -62 52 -67 52 -2 0 -31 17 -64 38 -32
22 -73 45 -90 52 -17 7 -31 16 -31 21 0 5 -8 9 -19 9 -10 0 -24 7 -31 15 -6 8
-15 14 -18 12 -4 -1 -32 10 -62 25 -131 61 -354 138 -455 155 -11 2 -54 10
-95 18 -41 8 -86 17 -100 19 -14 3 -25 5 -25 6 0 10 -436 20 -475 10z m148
-291 c2 6 9 8 15 4 7 -5 50 -8 97 -9 115 -2 241 -16 350 -41 36 -8 71 -15 78
-15 6 -1 12 -4 12 -8 0 -3 10 -6 23 -7 12 0 38 -7 57 -14 152 -55 333 -135
338 -150 2 -5 12 -9 23 -9 10 0 19 -4 19 -10 0 -5 6 -10 13 -10 7 0 36 -15 65
-34 28 -19 52 -32 52 -28 0 4 4 2 8 -4 4 -6 34 -30 67 -55 33 -24 65 -48 71
-54 6 -5 33 -28 58 -49 83 -70 222 -217 253 -268 10 -16 21 -28 25 -28 4 0 8
-6 8 -13 0 -7 9 -19 20 -27 11 -8 20 -20 20 -27 0 -7 5 -13 12 -13 6 0 9 -3 5
-6 -5 -6 0 -15 31 -49 6 -7 12 -16 12 -19 0 -2 22 -42 50 -87 27 -45 47 -86
44 -91 -3 -4 0 -8 5 -8 6 0 11 -9 11 -20 0 -11 5 -20 10 -20 6 0 10 -4 10 -9
0 -5 8 -26 17 -47 9 -22 16 -43 15 -48 -2 -4 2 -13 7 -20 18 -21 98 -276 107
-341 1 -11 3 -22 4 -25 1 -3 2 -9 1 -14 -1 -5 1 -16 5 -25 12 -27 14 -76 17
-367 2 -154 7 -285 10 -291 4 -7 4 -14 -1 -17 -4 -2 -6 -40 -5 -83 2 -43 3
-82 3 -88 -4 -163 -4 -215 3 -215 5 0 5 -6 0 -12 -10 -17 -10 -49 0 -70 4 -10
4 -18 -1 -18 -9 0 -8 -53 3 -69 3 -6 2 -11 -3 -11 -4 0 -7 -17 -4 -37 2 -21 3
-42 3 -48 0 -5 -1 -27 -3 -47 -3 -21 -1 -38 3 -38 5 0 5 -10 0 -22 -5 -13 -5
-32 -1 -43 4 -11 4 -29 0 -40 -4 -11 -4 -29 0 -41 5 -11 5 -27 0 -34 -4 -7 -4
-25 0 -40 4 -15 4 -33 0 -40 -5 -7 -5 -23 0 -34 4 -12 4 -30 0 -41 -4 -11 -4
-29 0 -40 4 -11 4 -29 0 -40 -4 -11 -3 -28 2 -37 5 -10 5 -18 1 -18 -9 0 -9
-87 0 -96 4 -4 3 -12 -1 -18 -11 -18 -9 -2666 3 -2666 7 0 6 -3 0 -8 -13 -9
-14 -162 -1 -162 5 0 4 -6 -1 -12 -8 -11 -10 -105 -3 -133 1 -5 1 -12 0 -15
-7 -15 -5 -70 3 -70 4 0 5 -6 0 -12 -11 -18 -11 -68 0 -68 6 0 6 -5 0 -12 -5
-7 -8 -24 -6 -38 5 -35 5 -41 0 -73 -2 -15 0 -30 5 -33 4 -3 5 -11 1 -17 -10
-16 -10 -77 0 -77 4 0 5 -6 0 -12 -10 -17 -10 -39 0 -60 4 -10 4 -18 0 -18 -4
0 -8 -16 -8 -35 0 -19 4 -35 8 -35 4 0 4 -8 -1 -17 -10 -22 -9 -123 1 -140 5
-7 4 -13 -1 -13 -10 0 -9 -30 2 -48 4 -6 4 -12 -1 -12 -4 0 -8 -11 -8 -25 0
-14 4 -25 10 -25 5 0 4 -5 -3 -12 -7 -7 -8 -17 -1 -30 5 -10 6 -18 2 -18 -4 0
-8 -11 -8 -25 0 -14 4 -25 8 -25 5 0 5 -5 1 -12 -11 -17 -11 -58 -1 -58 4 0 5
-5 2 -11 -11 -17 -13 -59 -3 -59 5 0 6 -6 1 -12 -9 -16 -11 -68 -2 -88 4 -8 3
-24 -1 -35 -4 -11 -3 -26 2 -32 6 -8 7 -13 1 -13 -5 0 -8 -15 -6 -32 2 -18 4
-37 3 -43 -1 -28 -10 -626 -10 -659 1 -42 -14 -59 -39 -46 -9 5 -43 19 -76 31
-83 31 -198 93 -275 147 -67 47 -270 248 -270 267 0 3 -8 15 -18 26 -11 10
-25 32 -33 47 -8 15 -22 36 -31 46 -10 11 -18 25 -18 31 0 7 -9 22 -20 35 -11
12 -17 27 -14 31 3 5 1 9 -5 9 -5 0 -13 10 -17 23 -4 12 -10 24 -14 27 -6 4
-35 65 -60 125 -5 11 -16 37 -25 57 -9 20 -18 42 -19 50 -2 7 -10 29 -19 48
-8 19 -13 38 -11 42 3 5 0 8 -6 8 -7 0 -10 6 -7 14 3 7 2 17 -3 22 -4 5 -15
36 -24 69 -9 33 -20 67 -23 75 -7 17 -10 27 -16 55 -2 11 -7 27 -10 35 -4 8
-8 29 -9 45 -2 17 -6 33 -11 36 -4 3 -8 24 -10 47 -1 23 -5 42 -8 42 -4 0 -9
19 -12 43 -3 23 -8 51 -10 62 -3 11 -10 49 -17 85 -6 36 -14 72 -17 80 -3 8
-7 26 -9 40 -1 14 -6 48 -10 75 -3 28 -8 66 -9 85 -2 19 -4 35 -5 35 -1 0 -3
23 -5 50 -2 28 -4 50 -5 50 -2 0 -6 35 -26 280 -3 33 -7 89 -9 125 -1 36 -4
65 -5 65 -1 0 -3 12 -4 28 -1 15 3 27 9 27 6 0 7 3 0 8 -5 4 -10 21 -10 37 0
17 5 33 10 37 6 5 6 8 -1 8 -12 0 -13 27 -13 500 -1 462 9 790 35 1135 4 44 8
100 9 125 1 25 4 45 5 45 1 0 3 25 5 55 4 70 14 186 20 225 3 17 7 59 11 95 3
36 7 76 9 90 1 14 6 54 9 90 4 36 8 74 11 85 2 11 4 42 4 68 1 34 4 46 13 41
7 -5 8 -3 3 6 -9 15 -13 70 -5 70 3 0 5 17 6 38 0 20 4 69 8 107 4 39 9 84 10
101 2 17 6 36 10 42 4 7 2 12 -4 12 -6 0 -8 5 -4 12 5 7 9 31 10 53 4 64 13
193 21 290 9 114 8 433 -1 505 -7 59 -10 75 -25 132 -5 20 -6 39 -3 42 3 4 0
6 -6 6 -7 0 -12 9 -12 20 0 11 -4 28 -9 38 -6 9 -24 46 -41 82 -34 69 -102
175 -145 225 -42 49 -100 109 -124 128 -92 74 -269 168 -341 181 -19 3 -46 8
-60 11 -68 15 -240 23 -246 13 -3 -5 -13 -4 -23 2 -10 5 -21 6 -25 3 -7 -7
-10 -8 -85 -18 -24 -3 -52 -10 -63 -16 -10 -5 -18 -7 -18 -3 0 3 -7 1 -15 -6
-8 -7 -15 -10 -15 -7 0 17 -186 -77 -249 -125 -49 -37 -121 -107 -121 -117 0
-6 -7 -11 -15 -11 -8 0 -15 -4 -15 -8 0 -10 -29 -49 -52 -70 -10 -9 -18 -21
-18 -26 0 -5 -11 -23 -24 -41 -34 -44 -93 -157 -107 -205 -7 -22 -15 -40 -19
-40 -4 0 -7 -6 -7 -12 -1 -13 -3 -22 -22 -103 -5 -22 -12 -71 -16 -110 -7 -71
-7 -383 0 -465 6 -75 18 -272 19 -317 0 -24 4 -43 7 -43 3 0 7 -26 8 -57 1
-32 4 -74 7 -93 2 -19 7 -62 9 -95 3 -33 8 -71 11 -85 3 -14 8 -52 10 -85 2
-33 5 -85 8 -115 7 -75 21 -204 30 -275 10 -71 18 -149 19 -192 1 -24 4 -43 7
-43 3 0 6 -21 6 -48 1 -26 4 -72 7 -102 7 -65 15 -173 22 -296 3 -49 8 -118
11 -154 10 -126 10 -150 -1 -150 -7 0 -7 -3 0 -8 13 -9 18 -205 17 -622 -2
-366 -4 -450 -15 -467 -4 -6 -3 -14 2 -18 10 -5 7 -36 -4 -55 -3 -6 -1 -10 5
-10 6 0 8 -5 5 -10 -6 -10 -9 -46 -19 -240 -3 -41 -7 -100 -11 -130 -3 -30 -7
-79 -8 -107 -1 -29 -4 -53 -7 -53 -3 0 -5 -10 -6 -22 -1 -38 -13 -141 -19
-168 -3 -14 -8 -47 -10 -75 -2 -27 -9 -70 -15 -94 -6 -24 -9 -50 -6 -58 3 -7
1 -13 -4 -13 -5 0 -9 -8 -9 -17 0 -29 -10 -93 -17 -116 -4 -12 -9 -26 -10 -32
-3 -12 -35 -164 -39 -185 -2 -8 -4 -17 -5 -20 -1 -3 -2 -9 -1 -13 1 -4 -3 -16
-8 -26 -6 -10 -13 -31 -16 -47 -8 -39 -8 -39 -32 -101 -3 -10 -5 -24 -4 -30 1
-7 -3 -13 -9 -13 -6 0 -9 -4 -5 -10 3 -5 1 -17 -4 -27 -6 -10 -24 -54 -41 -98
-47 -119 -132 -297 -155 -325 -7 -8 -16 -25 -19 -37 -4 -13 -12 -23 -17 -23
-5 0 -9 -6 -9 -13 0 -7 -9 -23 -20 -35 -11 -12 -20 -24 -20 -27 0 -4 -14 -27
-32 -53 -40 -58 -288 -305 -288 -287 0 4 -13 -5 -30 -18 -16 -14 -39 -28 -50
-32 -11 -3 -20 -11 -20 -16 0 -6 -4 -7 -10 -4 -5 3 -10 3 -10 -2 0 -11 -141
-74 -158 -71 -4 0 -23 -5 -42 -13 -51 -20 -65 -17 -67 11 -3 40 -3 3042 -1
4518 2 738 0 1342 -4 1342 -3 0 -4 8 -2 18 8 29 9 702 2 702 -4 0 -5 6 -3 13
3 6 7 84 9 172 4 152 10 218 22 258 3 10 8 35 10 55 3 20 12 62 20 92 8 30 17
62 19 70 2 8 4 16 4 18 1 1 1 5 2 10 0 4 5 13 11 20 6 7 8 15 5 19 -4 3 -2 11
3 18 5 6 11 20 13 31 2 10 9 32 15 47 7 16 12 30 12 32 0 3 12 30 27 62 14 32
26 64 26 71 0 6 3 12 7 12 6 0 42 68 38 73 -1 1 12 23 30 50 18 26 29 47 25
47 -4 0 -3 4 3 8 6 4 23 27 39 52 15 25 37 55 48 68 11 12 17 22 12 22 -4 0 4
11 19 25 14 13 26 28 26 33 0 4 20 29 44 55 24 26 42 47 39 47 -6 0 132 132
173 165 20 17 42 35 48 40 38 36 135 103 140 98 3 -4 6 1 6 11 0 9 4 15 9 12
5 -3 19 2 32 12 32 25 132 81 143 80 5 0 12 4 15 9 8 12 118 63 134 63 7 0 22
7 33 15 10 8 27 15 37 15 9 0 17 5 17 10 0 6 3 9 8 8 4 -1 39 8 77 20 39 13
75 23 80 23 6 1 17 5 26 10 15 8 56 17 104 24 11 2 20 4 20 5 0 7 183 29 277
33 26 2 50 6 54 9 4 4 16 2 27 -4 16 -8 22 -8 25 1z m171 -1623 c6 -4 23 -9
37 -12 28 -5 127 -55 132 -66 2 -5 9 -8 16 -8 17 0 160 -118 180 -149 4 -7 17
-20 27 -29 10 -9 19 -22 19 -28 0 -7 7 -14 15 -18 8 -3 15 -12 15 -21 0 -8 3
-15 8 -15 6 0 46 -75 47 -89 1 -3 6 -15 12 -26 15 -28 45 -164 38 -175 -3 -5
-2 -11 3 -14 7 -4 9 -431 2 -431 -1 0 -4 -20 -5 -45 -2 -25 -6 -70 -9 -100 -3
-30 -8 -75 -11 -100 -5 -46 -10 -80 -21 -147 -4 -21 -8 -47 -9 -58 -1 -11 -3
-20 -4 -20 -1 0 -4 -13 -7 -30 -10 -70 -67 -266 -84 -290 -4 -5 -11 -21 -15
-35 -4 -14 -19 -50 -33 -80 -14 -30 -24 -57 -23 -59 2 -2 -1 -7 -6 -10 -5 -3
-23 -31 -38 -61 -65 -124 -190 -284 -241 -310 -16 -8 -36 -19 -44 -25 -24 -18
-121 -55 -114 -44 4 8 1 8 -12 1 -16 -8 -94 -10 -101 -2 -2 1 -7 4 -13 5 -5 1
-12 4 -15 5 -3 1 -8 3 -12 4 -25 4 -73 30 -73 39 0 6 -3 7 -7 4 -12 -13 -152
146 -153 172 0 8 -3 11 -6 8 -7 -6 -28 26 -62 93 -9 19 -19 37 -22 40 -12 11
-70 141 -100 225 -51 141 -51 140 -53 170 -1 11 -5 22 -9 25 -3 3 -8 19 -11
35 -3 17 -8 37 -11 45 -6 14 -9 36 -22 125 -3 22 -7 51 -10 65 -7 37 -17 122
-18 148 0 12 -4 22 -8 22 -5 0 -4 8 1 19 6 10 8 21 4 24 -3 4 -7 28 -9 54 -5
65 -11 100 -19 112 -3 6 -3 11 2 11 4 0 8 22 8 50 0 27 -3 50 -6 50 -4 0 -3
15 1 34 4 19 4 40 -1 47 -4 7 -4 20 1 28 4 8 4 25 -1 38 -5 13 -4 25 1 28 7 4
7 13 0 24 -5 10 -7 21 -4 24 3 3 7 18 9 34 1 15 6 48 10 73 4 25 8 56 10 70 2
14 4 26 5 28 1 1 3 5 5 10 14 51 21 71 41 113 13 27 24 54 24 60 0 5 5 7 10 4
6 -3 10 1 10 9 0 9 9 25 20 36 11 11 20 23 20 26 0 7 104 109 141 139 31 25
93 61 139 82 19 8 37 18 40 22 5 6 29 10 83 13 15 1 27 4 27 8 0 9 244 5 259
-4z m-106 -4727 c20 -2 37 -6 37 -9 0 -3 15 -11 34 -18 39 -14 114 -83 141
-129 11 -18 23 -33 27 -33 4 0 8 -5 8 -12 0 -6 11 -34 24 -62 26 -55 53 -131
60 -168 2 -13 7 -30 10 -38 3 -8 7 -28 10 -45 5 -31 11 -65 23 -125 3 -19 7
-51 8 -70 1 -19 5 -60 9 -90 6 -52 12 -181 21 -435 5 -115 10 -183 20 -250 3
-22 8 -61 12 -87 3 -27 10 -48 15 -48 5 0 7 -4 3 -9 -3 -6 -1 -29 5 -53 19
-76 31 -134 32 -145 0 -5 4 -19 9 -32 5 -13 12 -40 15 -60 3 -20 10 -44 15
-53 5 -9 11 -32 14 -50 2 -18 9 -48 14 -67 6 -19 8 -38 5 -42 -3 -5 -1 -9 4
-9 11 0 10 -59 0 -76 -8 -12 -77 -37 -133 -48 -88 -19 -278 -29 -535 -29 -359
0 -543 22 -604 73 -15 13 -17 24 -12 75 9 96 18 145 25 145 3 0 7 16 8 36 1
21 5 44 9 53 9 21 13 39 18 82 6 49 10 63 17 69 4 3 10 34 14 70 4 36 9 69 12
73 6 9 12 55 15 119 2 27 5 48 8 48 3 0 5 10 6 23 3 94 8 144 16 159 5 10 4
19 -2 23 -6 4 -8 11 -4 16 3 5 7 92 10 194 2 101 6 199 9 217 4 18 8 58 10 88
2 30 6 64 8 75 3 11 8 45 12 75 5 30 10 62 12 70 1 8 6 32 9 53 3 20 10 37 15
37 5 0 9 12 9 26 0 23 56 173 69 184 3 3 12 17 20 32 18 36 104 128 119 128 7
0 12 4 12 9 0 9 8 13 74 34 36 12 83 14 179 6z m-2008 -2649 c8 -7 19 -9 24
-6 5 4 13 1 18 -6 7 -12 32 -18 76 -19 9 0 17 -5 17 -10 0 -6 4 -8 8 -5 4 3
27 1 50 -5 23 -5 59 -12 80 -15 20 -3 46 -8 57 -11 11 -4 34 -8 50 -9 17 -1
30 -3 30 -4 0 -1 11 -3 25 -5 14 -1 48 -6 75 -9 28 -4 73 -9 100 -11 28 -2 63
-7 78 -10 16 -3 53 -7 83 -9 30 -2 57 -6 61 -10 3 -3 12 -1 20 5 9 8 13 8 13
0 0 -6 10 -11 23 -10 21 0 67 -3 192 -16 107 -11 251 -20 461 -29 40 -2 77 -6
82 -10 6 -3 13 -3 15 2 5 7 27 7 105 -1 17 -2 32 -1 32 3 0 3 17 4 38 2 41 -4
57 -4 87 -3 11 1 45 1 75 1 30 -1 64 1 75 3 11 3 27 1 36 -4 9 -5 30 -4 47 0
17 5 33 7 36 3 5 -5 71 -7 79 -2 1 1 47 3 102 5 148 5 292 14 359 20 32 3 88
8 125 10 67 5 123 10 221 21 73 8 127 14 175 19 22 2 40 4 40 5 0 1 14 3 30 4
46 5 136 16 170 22 17 2 45 6 63 7 17 1 32 5 32 9 0 3 8 5 18 4 9 -2 31 1 47
6 17 5 47 11 67 13 21 2 63 11 95 19 31 8 60 13 65 10 4 -3 8 -1 8 5 0 6 7 8
15 5 8 -4 15 -2 15 3 0 5 6 10 13 10 22 1 42 8 49 18 28 39 34 -113 6 -172
-11 -24 -24 -43 -28 -43 -5 0 -15 -6 -22 -13 -14 -14 -121 -68 -141 -71 -7 -1
-22 -8 -34 -14 -19 -10 -23 -10 -23 0 0 8 -3 9 -8 3 -9 -14 -90 -38 -102 -30
-6 3 -10 1 -10 -4 0 -6 -13 -11 -30 -11 -16 0 -30 -3 -30 -8 0 -4 -12 -8 -27
-9 -29 -2 -60 -7 -110 -17 -32 -6 -103 -17 -148 -21 -16 -2 -30 -4 -30 -5 0
-3 -33 -8 -100 -14 -38 -3 -81 -8 -95 -10 -14 -3 -65 -8 -115 -11 -49 -4 -106
-8 -125 -10 -137 -13 -423 -20 -840 -19 -477 0 -645 5 -910 29 -41 4 -86 8
-100 9 -14 1 -31 5 -37 9 -7 4 -14 3 -18 -3 -4 -6 -11 -8 -16 -4 -6 3 -32 8
-57 11 -65 6 -107 11 -107 13 0 1 -13 3 -30 5 -16 2 -52 7 -80 11 -27 5 -62 8
-77 9 -16 0 -28 2 -28 5 0 3 -10 6 -22 7 -60 6 -108 16 -108 22 0 3 -13 6 -29
7 -16 1 -37 5 -47 9 -11 4 -28 10 -39 12 -77 13 -271 112 -283 143 -3 8 -9 18
-14 21 -9 6 -17 135 -10 157 5 14 47 9 67 -8z"/>
</g>
</svg>
